<?xml version="1.0" standalone="no"?>
<!DOCTYPE svg PUBLIC "-//W3C//DTD SVG 20010904//EN"
 "http://www.w3.org/TR/2001/REC-SVG-20010904/DTD/svg10.dtd">
<svg version="1.0" xmlns="http://www.w3.org/2000/svg"
 width="382.000000pt" height="475.000000pt" viewBox="0 0 382.000000 475.000000"
 preserveAspectRatio="xMidYMid meet">

<g transform="translate(0.000000,475.000000) scale(0.100000,-0.100000)"
fill="#000000" stroke="none">
<path d="M1035 4262 c-467 -186 -855 -340 -861 -344 -26 -17 -36 -757 -14
-1083 44 -684 160 -1116 383 -1427 210 -294 456 -551 812 -849 154 -128 467
-366 521 -395 33 -18 35 -18 67 -1 49 26 365 265 501 379 284 236 539 488 704
696 226 283 319 467 396 781 93 377 128 749 126 1341 -1 423 -8 549 -30 562
-41 24 -1714 678 -1733 677 -12 0 -404 -152 -872 -337z m1686 -144 l787 -310
7 -264 c22 -793 -74 -1503 -250 -1854 -137 -273 -486 -668 -880 -995 l-80 -66
-3 600 -2 601 -75 0 -75 0 0 -663 0 -663 -77 -57 -78 -58 -3 721 -2 720 -80 0
-80 0 -2 -720 -3 -721 -77 58 -78 57 0 663 0 663 -75 0 -75 0 -2 -601 -3 -600
-80 66 c-396 329 -742 721 -880 995 -176 351 -272 1061 -250 1854 l7 264 797
315 c438 174 803 314 811 311 8 -3 369 -145 801 -316z"/>
<path d="M1872 4108 l-28 -93 -102 -3 c-56 -1 -102 -6 -102 -10 1 -5 105 -84
151 -113 5 -3 -4 -45 -21 -94 -16 -49 -30 -93 -30 -98 0 -14 22 -3 98 53 l71
52 71 -52 c76 -55 100 -68 100 -53 0 5 -14 49 -30 98 -17 49 -26 91 -21 94 46
29 150 108 151 113 0 4 -46 9 -102 10 l-102 3 -28 93 c-16 50 -33 92 -38 92
-5 0 -22 -42 -38 -92z m53 -140 c6 -13 21 -24 34 -26 23 -4 23 -4 2 -18 -17
-12 -19 -19 -11 -40 14 -36 13 -36 -15 -18 -23 15 -27 15 -50 0 -28 -18 -29
-18 -15 18 8 21 6 28 -11 40 -21 14 -21 14 2 18 13 2 28 13 34 26 5 12 12 22
15 22 3 0 10 -10 15 -22z"/>
<path d="M535 3448 c-3 -7 -4 -215 -3 -463 l3 -450 108 -3 107 -3 0 181 0 180
100 0 101 0 -3 98 -3 97 -97 3 -98 3 0 84 0 84 108 3 107 3 0 95 0 95 -213 3
c-164 2 -214 0 -217 -10z"/>
<path d="M1123 3440 c-67 -41 -68 -44 -68 -450 0 -484 -14 -460 261 -460 l164
0 38 34 37 34 3 381 c3 422 3 422 -61 461 -28 18 -51 20 -187 20 -136 0 -159
-2 -187 -20z m225 -447 l-3 -288 -37 -3 -38 -3 0 290 0 291 40 0 40 0 -2 -287z"/>
<path d="M1657 3453 c-4 -3 -7 -213 -7 -465 l0 -459 108 3 107 3 5 180 5 180
61 -180 61 -180 94 0 94 0 3 54 c3 46 -6 78 -54 207 l-57 154 28 22 c46 36 55
73 55 230 0 118 -4 150 -19 184 -31 67 -56 74 -283 74 -107 0 -198 -3 -201 -7z
m288 -283 l0 -105 -37 -3 -38 -3 0 111 0 111 38 -3 37 -3 0 -105z"/>
<path d="M2313 3440 c-64 -39 -64 -39 -61 -461 l3 -381 37 -34 38 -34 166 0
c136 0 171 3 194 16 50 30 63 66 68 195 2 64 2 129 -2 143 l-7 27 -102 -3
-102 -3 -5 -100 -5 -100 -35 0 -35 0 -3 288 -2 287 39 0 40 0 3 -102 3 -103
102 -3 102 -3 7 27 c13 49 -2 257 -20 292 -33 63 -62 72 -236 72 -136 0 -159
-2 -187 -20z"/>
<path d="M2847 3453 c-4 -3 -7 -213 -7 -465 l0 -458 220 0 221 0 -3 98 -3 97
-107 3 -108 3 0 84 0 85 100 0 100 0 0 100 0 100 -100 0 -100 0 0 80 0 79 108
3 107 3 3 75 c5 131 25 120 -217 120 -114 0 -211 -3 -214 -7z"/>
<path d="M947 2304 c-4 -4 -7 -35 -7 -68 0 -60 1 -61 38 -81 35 -19 58 -65 33
-65 -6 0 -11 11 -11 25 0 21 -5 25 -31 25 -30 0 -30 -1 -27 -47 l3 -48 65 0
65 0 3 67 c3 64 2 67 -25 82 l-28 15 28 1 c27 0 28 1 25 48 l-3 47 -60 3 c-34
2 -64 0 -68 -4z m73 -70 c0 -14 -4 -23 -10 -19 -5 3 -10 15 -10 26 0 10 5 19
10 19 6 0 10 -12 10 -26z"/>
<path d="M1145 2297 c-3 -7 -4 -67 -3 -133 l3 -119 65 0 65 0 0 130 0 130 -63
3 c-45 2 -64 -1 -67 -11z m75 -122 c0 -50 -4 -85 -10 -85 -6 0 -10 35 -10 85
0 50 4 85 10 85 6 0 10 -35 10 -85z"/>
<path d="M1345 2297 c-3 -7 -4 -67 -3 -133 l3 -119 65 0 65 0 3 53 3 52 -30 0
c-28 0 -31 -3 -31 -30 0 -16 -4 -30 -10 -30 -6 0 -10 35 -10 85 0 50 4 85 10
85 6 0 10 -13 10 -30 0 -27 3 -30 31 -30 l30 0 -3 53 -3 52 -63 3 c-45 2 -64
-1 -67 -11z"/>
<path d="M1545 2297 c-3 -7 -4 -67 -3 -133 l3 -119 65 0 65 0 3 53 3 52 -30 0
c-28 0 -31 -3 -31 -30 0 -16 -4 -30 -10 -30 -6 0 -10 35 -10 85 0 50 4 85 10
85 6 0 10 -13 10 -30 0 -27 3 -30 31 -30 l30 0 -3 53 -3 52 -63 3 c-45 2 -64
-1 -67 -11z"/>
<path d="M1740 2175 l0 -135 65 0 65 0 0 30 c0 28 -3 30 -35 30 -31 0 -35 3
-35 25 0 21 5 25 30 25 27 0 30 3 30 30 0 27 -3 30 -30 30 -23 0 -30 4 -30 20
0 16 7 20 35 20 32 0 35 2 35 30 l0 30 -65 0 -65 0 0 -135z"/>
<path d="M1920 2175 l0 -135 30 0 c29 0 30 2 31 48 l0 47 15 -47 c13 -43 18
-48 44 -48 35 0 38 15 16 78 -9 25 -11 43 -5 49 6 6 9 39 7 74 l-3 64 -67 3
-68 3 0 -136z m80 50 c0 -19 -4 -35 -10 -35 -5 0 -10 16 -10 35 0 19 5 35 10
35 6 0 10 -16 10 -35z"/>
<path d="M2225 2297 c-3 -7 -4 -67 -3 -133 l3 -119 65 0 65 0 3 53 3 52 -30 0
c-28 0 -31 -3 -31 -30 0 -16 -4 -30 -10 -30 -6 0 -10 35 -10 85 0 50 4 85 10
85 6 0 10 -13 10 -30 0 -27 3 -30 31 -30 l30 0 -3 53 -3 52 -63 3 c-45 2 -64
-1 -67 -11z"/>
<path d="M2420 2175 l0 -135 65 0 65 0 0 30 c0 28 -3 30 -35 30 l-35 0 0 105
0 105 -30 0 -30 0 0 -135z"/>
<path d="M2592 2178 l3 -133 65 0 65 0 3 133 3 132 -31 0 -30 0 0 -110 c0 -67
-4 -110 -10 -110 -6 0 -10 43 -10 110 l0 110 -30 0 -31 0 3 -132z"/>
<path d="M2790 2175 l0 -136 68 3 67 3 3 53 c2 30 -2 59 -7 66 -7 9 -7 16 0
23 5 5 9 34 7 64 l-3 54 -67 3 -68 3 0 -136z m80 55 c0 -16 -4 -30 -10 -30 -5
0 -10 14 -10 30 0 17 5 30 10 30 6 0 10 -13 10 -30z m0 -110 c0 -16 -4 -30
-10 -30 -5 0 -10 14 -10 30 0 17 5 30 10 30 6 0 10 -13 10 -30z"/>
</g>
</svg>
